<svg width="22" height="22" viewBox="0 0 22 22" fill="none" xmlns="http://www.w3.org/2000/svg">
<path d="M17.5312 20.625H7.90625C7.08574 20.625 6.29883 20.2991 5.71864 19.7189C5.13845 19.1387 4.8125 18.3518 4.8125 17.5312V7.90625C4.8125 7.08574 5.13845 6.29883 5.71864 5.71864C6.29883 5.13845 7.08574 4.8125 7.90625 4.8125H17.5312C18.3518 4.8125 19.1387 5.13845 19.7189 5.71864C20.2991 6.29883 20.625 7.08574 20.625 7.90625V17.5312C20.625 18.3518 20.2991 19.1387 19.7189 19.7189C19.1387 20.2991 18.3518 20.625 17.5312 20.625Z" fill="white"/>
<path d="M6.875 3.4375H17.0105C16.7966 2.83475 16.4014 2.31295 15.8792 1.94369C15.357 1.57442 14.7333 1.37577 14.0938 1.375H4.46875C3.64824 1.375 2.86133 1.70095 2.28114 2.28114C1.70095 2.86133 1.375 3.64824 1.375 4.46875V14.0938C1.37577 14.7333 1.57442 15.357 1.94369 15.8792C2.31295 16.4014 2.83475 16.7966 3.4375 17.0105V6.875C3.4375 5.96332 3.79966 5.08898 4.44432 4.44432C5.08898 3.79966 5.96332 3.4375 6.875 3.4375Z" fill="white"/>
</svg>
