<svg width="20" height="22" viewBox="0 0 20 22" fill="none" xmlns="http://www.w3.org/2000/svg">
<g clip-path="url(#clip0_7_222)">
<path fill-rule="evenodd" clip-rule="evenodd" d="M11.8929 7.83684C12.5659 7.50126 13.4222 7.00729 14.2796 6.3305C14.4603 6.70589 14.4801 7.03347 14.387 7.29798C14.321 7.4844 14.1966 7.64654 14.0331 7.77553C13.856 7.91494 13.6348 8.01643 13.3903 8.07128C12.9264 8.17578 12.3848 8.11477 11.8929 7.83684ZM12.0096 11.2751L12.9005 11.7897C11.0815 12.8092 10.587 14.7022 9.99963 16.546C9.4123 14.7022 8.91774 12.8092 7.09885 11.7897L7.98971 11.2751C8.07589 11.2426 8.14954 11.1836 8.20013 11.1066C8.25071 11.0296 8.27563 10.9385 8.27131 10.8465C8.18969 9.11973 8.65594 8.35611 9.28485 7.87666C9.51042 7.70491 9.75667 7.61867 9.99963 7.61867C10.2426 7.61867 10.4888 7.70491 10.7145 7.87666C11.3434 8.35611 11.8096 9.11973 11.728 10.8465C11.7237 10.9385 11.7486 11.0296 11.7992 11.1066C11.8498 11.1836 11.9234 11.2426 12.0096 11.2751ZM9.99963 0C11.0294 0.0276467 12.0617 0.227553 12.9576 0.61644C13.578 0.886086 14.1569 1.24227 14.6811 1.66819C14.9178 1.86047 15.1127 2.04622 15.3274 2.26006C15.9066 2.28008 16.7529 1.63673 17.1458 1.03473C16.4696 3.2516 13.3839 5.86952 11.2476 6.87126C11.2467 6.87089 11.2461 6.87038 11.2455 6.86994C10.8621 6.57719 10.4309 6.43082 9.99963 6.43082C9.56835 6.43082 9.13723 6.57719 8.75384 6.86994C8.75318 6.8703 8.75259 6.87096 8.75171 6.87126C6.61537 5.86952 3.52972 3.2516 2.85352 1.03473C3.24636 1.63673 4.0927 2.28008 4.67182 2.26006C4.88661 2.04629 5.08153 1.86047 5.31817 1.66819C5.84236 1.24227 6.42125 0.886086 7.04165 0.61644C7.93764 0.227553 8.96995 0.0276467 9.99963 0ZM8.10631 7.83684C7.4334 7.50126 6.57701 7.00729 5.71975 6.3305C5.53898 6.70589 5.51918 7.03347 5.61224 7.29798C5.67831 7.4844 5.80269 7.64654 5.96615 7.77553C6.14332 7.91494 6.36449 8.01643 6.60899 8.07128C7.07289 8.17578 7.61446 8.11477 8.10631 7.83684Z" fill="white"/>
<path fill-rule="evenodd" clip-rule="evenodd" d="M15.2187 5.50103C15.6906 5.02473 16.1065 4.49753 16.4409 4.0271L16.6108 4.34676C17.1575 5.44067 17.4416 6.53018 17.4416 7.75632L17.4405 9.702L17.4507 10.7106C17.4903 13.1868 18.0261 15.6921 19.2398 17.9848L16.7004 15.9372L14.9037 18.8528L13.0161 17.0759L9.99976 21.9708L6.98342 17.076L5.09589 18.8529L3.29915 15.9372L0.759766 17.9848C1.97343 15.6922 2.5092 13.1869 2.54888 10.7107L2.55914 9.70207L2.55797 7.75639C2.55797 6.53019 2.84199 5.44067 3.38891 4.34683L3.55868 4.02717C3.89308 4.49761 4.30888 5.02473 4.78092 5.5011L4.63352 5.80727C4.34716 6.40193 4.25234 7.06684 4.47542 7.69919C4.61922 8.10648 4.88168 8.45577 5.22004 8.72241C5.54858 8.98135 5.93739 9.15588 6.34446 9.24755C6.60964 9.30724 6.8798 9.33181 7.1482 9.32345C7.08557 9.67846 7.05822 10.0467 7.05646 10.4218L4.6611 11.8053L6.50954 12.8415C6.65728 12.9243 6.79792 13.0192 6.93003 13.1252C8.45397 14.4934 9.3702 18.5412 9.99984 20.5184C10.6295 18.5412 11.5457 14.4934 13.0697 13.1252C13.2018 13.0192 13.3425 12.9243 13.4902 12.8415L15.3386 11.8053L12.9432 10.4218C12.9415 10.0467 12.9141 9.67846 12.8515 9.32345C13.1199 9.33181 13.39 9.30724 13.6552 9.24755C14.0623 9.15588 14.4512 8.98135 14.7796 8.72241C15.1179 8.45577 15.3804 8.10648 15.5242 7.69919C15.7473 7.06684 15.6524 6.402 15.3661 5.80727L15.2187 5.5011L15.2187 5.50103Z" fill="white"/>
</g>
<defs>
<clipPath id="clip0_7_222">
<rect width="18.48" height="22" fill="white" transform="translate(0.759766)"/>
</clipPath>
</defs>
</svg>
