<svg width="19" height="22" viewBox="0 0 19 22" fill="none" xmlns="http://www.w3.org/2000/svg">
<g clip-path="url(#clip0_34_25)">
<path fill-rule="evenodd" clip-rule="evenodd" d="M11.1429 7.8368C11.8159 7.50123 12.6722 7.00726 13.5296 6.33047C13.7103 6.70586 13.7301 7.03344 13.637 7.29795C13.571 7.48436 13.4466 7.64651 13.2831 7.7755C13.106 7.91491 12.8848 8.0164 12.6403 8.07125C12.1764 8.17575 11.6348 8.11474 11.1429 7.8368ZM11.2596 11.2751L12.1505 11.7897C10.3315 12.8092 9.83703 14.7022 9.24963 16.546C8.6623 14.7022 8.16774 12.8092 6.34885 11.7897L7.23971 11.2751C7.32589 11.2425 7.39954 11.1835 7.45013 11.1065C7.50071 11.0295 7.52563 10.9385 7.52131 10.8465C7.43969 9.1197 7.90594 8.35608 8.53485 7.87663C8.76042 7.70488 9.00667 7.61864 9.24963 7.61864C9.49258 7.61864 9.73883 7.70488 9.96448 7.87663C10.5934 8.35608 11.0596 9.1197 10.978 10.8465C10.9737 10.9385 10.9986 11.0295 11.0492 11.1065C11.0998 11.1835 11.1734 11.2425 11.2596 11.2751ZM9.24963 -3.05176e-05C10.2794 0.0276161 11.3117 0.227523 12.2076 0.616409C12.828 0.886056 13.4069 1.24224 13.9311 1.66816C14.1678 1.86044 14.3627 2.04619 14.5774 2.26003C15.1566 2.28005 16.0029 1.6367 16.3958 1.0347C15.7196 3.25157 12.6339 5.86949 10.4976 6.87123C10.4967 6.87086 10.4961 6.87035 10.4955 6.86991C10.1121 6.57716 9.6809 6.43079 9.24963 6.43079C8.81835 6.43079 8.38723 6.57716 8.00384 6.86991C8.00318 6.87027 8.00259 6.87093 8.00171 6.87123C5.86537 5.86949 2.77972 3.25157 2.10352 1.0347C2.49636 1.6367 3.3427 2.28005 3.92182 2.26003C4.13661 2.04626 4.33153 1.86044 4.56817 1.66816C5.09236 1.24224 5.67125 0.886056 6.29165 0.616409C7.18764 0.227523 8.21995 0.0276161 9.24963 -3.05176e-05ZM7.35631 7.8368C6.6834 7.50123 5.82701 7.00726 4.96975 6.33047C4.78898 6.70586 4.76918 7.03344 4.86224 7.29795C4.92831 7.48436 5.05269 7.64651 5.21615 7.7755C5.39332 7.91491 5.61449 8.0164 5.85899 8.07125C6.32289 8.17575 6.86446 8.11474 7.35631 7.8368Z" fill="black"/>
<path fill-rule="evenodd" clip-rule="evenodd" d="M14.4687 5.50109C14.9406 5.02479 15.3565 4.49759 15.6909 4.02716L15.8608 4.34682C16.4075 5.44073 16.6916 6.53025 16.6916 7.75638L16.6905 9.70206L16.7007 10.7107C16.7403 13.1869 17.2761 15.6921 18.4898 17.9848L15.9504 15.9372L14.1537 18.8529L12.2661 17.0759L9.24976 21.9709L6.23342 17.076L4.34589 18.853L2.54915 15.9373L0.00976562 17.9849C1.22343 15.6922 1.7592 13.1869 1.79888 10.7108L1.80914 9.70213L1.80797 7.75645C1.80797 6.53025 2.09199 5.44073 2.63891 4.34689L2.80868 4.02723C3.14308 4.49767 3.55888 5.02479 4.03092 5.50116L3.88352 5.80733C3.59716 6.40199 3.50234 7.0669 3.72542 7.69925C3.86922 8.10655 4.13168 8.45583 4.47004 8.72247C4.79858 8.98141 5.18739 9.15595 5.59446 9.24761C5.85964 9.30731 6.1298 9.33187 6.3982 9.32351C6.33557 9.67852 6.30822 10.0467 6.30646 10.4219L3.9111 11.8054L5.75954 12.8415C5.90728 12.9244 6.04792 13.0193 6.18003 13.1253C7.70397 14.4935 8.6202 18.5413 9.24984 20.5184C9.87955 18.5413 10.7957 14.4935 12.3197 13.1253C12.4518 13.0192 12.5925 12.9243 12.7402 12.8415L14.5886 11.8054L12.1932 10.4219C12.1915 10.0467 12.1641 9.67852 12.1015 9.32351C12.3699 9.33187 12.64 9.30731 12.9052 9.24761C13.3123 9.15595 13.7012 8.98141 14.0296 8.72247C14.3679 8.45583 14.6304 8.10655 14.7742 7.69925C14.9973 7.0669 14.9024 6.40206 14.6161 5.80733L14.4687 5.50116L14.4687 5.50109Z" fill="black"/>
</g>
<defs>
<clipPath id="clip0_34_25">
<rect width="18.48" height="22" fill="white" transform="translate(0.00976562)"/>
</clipPath>
</defs>
</svg>
