<svg width="13" height="14" viewBox="0 0 13 14" fill="none" xmlns="http://www.w3.org/2000/svg">
<path d="M5.22717 9.34059H7.06946L6.14831 7.49829L5.22717 9.34059ZM3.99897 7.65182C4.33672 7.65182 4.62596 7.53166 4.86669 7.29134C5.10742 7.05102 5.22758 6.76178 5.22717 6.42362C5.22676 6.08545 5.1066 5.79642 4.86669 5.55651C4.62678 5.3166 4.33754 5.19624 3.99897 5.19542C3.6604 5.1946 3.37136 5.31497 3.13186 5.55651C2.89236 5.79806 2.772 6.08709 2.77077 6.42362C2.76954 6.76014 2.88991 7.04939 3.13186 7.29134C3.37382 7.53329 3.66285 7.65345 3.99897 7.65182ZM8.29766 7.65182C8.63542 7.65182 8.92466 7.53166 9.16538 7.29134C9.40611 7.05102 9.52627 6.76178 9.52586 6.42362C9.52545 6.08545 9.40529 5.79642 9.16538 5.55651C8.92548 5.3166 8.63623 5.19624 8.29766 5.19542C7.95909 5.1946 7.67005 5.31497 7.43055 5.55651C7.19106 5.79806 7.07069 6.08709 7.06946 6.42362C7.06823 6.76014 7.1886 7.04939 7.43055 7.29134C7.67251 7.53329 7.96154 7.65345 8.29766 7.65182ZM2.46372 13.1787V10.5688C2.06456 10.3948 1.71391 10.162 1.41177 9.87056C1.10963 9.57906 0.853759 9.24888 0.644147 8.88001C0.434535 8.51114 0.275892 8.1171 0.16822 7.69787C0.0605485 7.27865 0.00691715 6.8539 0.00732654 6.42362C0.00732654 4.80649 0.580486 3.48106 1.7268 2.44733C2.87312 1.4136 4.34696 0.896729 6.14831 0.896729C7.94967 0.896729 9.42351 1.4136 10.5698 2.44733C11.7161 3.48106 12.2893 4.80649 12.2893 6.42362C12.2893 6.85349 12.2357 7.27824 12.1284 7.69787C12.0211 8.11751 11.8625 8.51155 11.6525 8.88001C11.4425 9.24847 11.1866 9.57865 10.8849 9.87056C10.5831 10.1625 10.2325 10.3952 9.83291 10.5688V13.1787H7.99061V11.9505H6.76241V13.1787H5.53422V11.9505H4.30602V13.1787H2.46372Z" fill="#FFA4A4"/>
</svg>
