<svg width="30" height="30" viewBox="0 0 30 30" fill="none" xmlns="http://www.w3.org/2000/svg">
<path fill-rule="evenodd" clip-rule="evenodd" d="M8.98601 5.55692H7.65559C7.09904 5.55692 6.56529 5.77801 6.17175 6.17154C5.77822 6.56508 5.55713 7.09883 5.55713 7.65538V20.2461C5.55713 20.8027 5.77822 21.3364 6.17175 21.73C6.56529 22.1235 7.09904 22.3446 7.65559 22.3446H10.8033V15C10.8033 13.8869 11.2455 12.8194 12.0325 12.0323C12.8196 11.2452 13.8871 10.8031 15.0002 10.8031H21.2956V7.65538C21.2956 7.09883 21.0745 6.56508 20.681 6.17154C20.2874 5.77801 19.7537 5.55692 19.1971 5.55692H17.8667C17.6825 5.23792 17.4176 4.97302 17.0986 4.78884C16.7796 4.60467 16.4178 4.5077 16.0494 4.50769H10.8033C10.4349 4.5077 10.0731 4.60467 9.75408 4.78884C9.43508 4.97302 9.17019 5.23792 8.98601 5.55692ZM15.5248 8.70461C15.6639 8.70461 15.7974 8.64934 15.8958 8.55095C15.9942 8.45257 16.0494 8.31913 16.0494 8.18V7.13076C16.0494 6.99163 15.9942 6.85819 15.8958 6.75981C15.7974 6.66142 15.6639 6.60615 15.5248 6.60615H11.3279C11.1888 6.60615 11.0553 6.66142 10.9569 6.75981C10.8586 6.85819 10.8033 6.99163 10.8033 7.13076V8.18C10.8033 8.31913 10.8586 8.45257 10.9569 8.55095C11.0553 8.64934 11.1888 8.70461 11.3279 8.70461H15.5248ZM15.0002 12.9015C14.4437 12.9015 13.9099 13.1226 13.5164 13.5162C13.1228 13.9097 12.9017 14.4434 12.9017 15V23.3938C12.9017 23.9504 13.1228 24.4841 13.5164 24.8777C13.9099 25.2712 14.4437 25.4923 15.0002 25.4923H22.3448C22.9014 25.4923 23.4351 25.2712 23.8286 24.8777C24.2222 24.4841 24.4433 23.9504 24.4433 23.3938V15C24.4433 14.4434 24.2222 13.9097 23.8286 13.5162C23.4351 13.1226 22.9014 12.9015 22.3448 12.9015H15.0002Z" fill="white"/>
</svg>
