<svg width="26" height="26" viewBox="0 0 26 26" fill="none" xmlns="http://www.w3.org/2000/svg">
<mask id="mask0_168_37" style="mask-type:luminance" maskUnits="userSpaceOnUse" x="0" y="0" width="26" height="26">
<path d="M0.980469 0.730469H25.5195V25.2695H0.980469V0.730469Z" fill="white"/>
</mask>
<g mask="url(#mask0_168_37)">
</g>
<path fill-rule="evenodd" clip-rule="evenodd" d="M20.7576 5.16049C21.0047 5.05649 21.2752 5.02061 21.5409 5.05661C21.8066 5.09261 22.0578 5.19916 22.2683 5.36518C22.4788 5.5312 22.641 5.75061 22.738 6.00058C22.8349 6.25055 22.8631 6.52194 22.8196 6.7865L20.5516 20.5435C20.3316 21.8705 18.8756 22.6315 17.6586 21.9705C16.6406 21.4175 15.1286 20.5655 13.7686 19.6765C13.0886 19.2315 11.0056 17.8065 11.2616 16.7925C11.4816 15.9255 14.9816 12.6675 16.9816 10.7305C17.7666 9.96949 17.4086 9.5305 16.4816 10.2305C14.1796 11.9685 10.4836 14.6115 9.26161 15.3555C8.18361 16.0115 7.62161 16.1235 6.94961 16.0115C5.72361 15.8075 4.58661 15.4915 3.65861 15.1065C2.40461 14.5865 2.46561 12.8625 3.65761 12.3605L20.7576 5.16049Z" fill="white"/>
</svg>
